<svg height="590" width="720" xmlns="http://www.w3.org/2000/svg">
<rect height="590" fill="#555" width="720"></rect>
<text fill="#7f7" font-family="Courier New" font-size="12" xml:space="preserve">
<tspan x="10" y="26">28 megabytes installed</tspan>
<tspan x="10" y="42"></tspan>
<tspan x="10" y="58">node_modules</tspan>
<tspan x="10" y="74">└─┬ lambda-local@1.4.2 </tspan>
<tspan x="10" y="90">  ├─┬ aws-sdk@2.45.0 </tspan>
<tspan x="10" y="106">  │ ├─┬ buffer@4.9.1 </tspan>
<tspan x="10" y="122">  │ │ ├── base64-js@1.2.0 </tspan>
<tspan x="10" y="138">  │ │ ├── ieee754@1.1.8 </tspan>
<tspan x="10" y="154">  │ │ └── isarray@1.0.0 </tspan>
<tspan x="10" y="170">  │ ├── crypto-browserify@1.0.9 </tspan>
<tspan x="10" y="186">  │ ├── jmespath@0.15.0 </tspan>
<tspan x="10" y="202">  │ ├── querystring@0.2.0 </tspan>
<tspan x="10" y="218">  │ ├── sax@1.2.1 </tspan>
<tspan x="10" y="234">  │ ├─┬ url@0.10.3 </tspan>
<tspan x="10" y="250">  │ │ └── punycode@1.3.2 </tspan>
<tspan x="10" y="266">  │ ├── uuid@3.0.1 </tspan>
<tspan x="10" y="282">  │ ├── xml2js@0.4.17 </tspan>
<tspan x="10" y="298">  │ └─┬ xmlbuilder@4.2.1 </tspan>
<tspan x="10" y="314">  │   └── lodash@4.17.4 </tspan>
<tspan x="10" y="330">  ├─┬ chai@3.5.0 </tspan>
<tspan x="10" y="346">  │ ├── assertion-error@1.0.2 </tspan>
<tspan x="10" y="362">  │ ├─┬ deep-eql@0.1.3 </tspan>
<tspan x="10" y="378">  │ │ └── type-detect@0.1.1 </tspan>
<tspan x="10" y="394">  │ └── type-detect@1.0.0 </tspan>
<tspan x="10" y="410">  ├─┬ commander@2.9.0 </tspan>
<tspan x="10" y="426">  │ └── graceful-readlink@1.0.1 </tspan>
<tspan x="10" y="442">  ├── fs@0.0.2 </tspan>
<tspan x="10" y="458">  ├── mute@2.0.6 </tspan>
<tspan x="10" y="474">  └─┬ winston@2.3.1 </tspan>
<tspan x="10" y="490">    ├── async@1.0.0 </tspan>
<tspan x="10" y="506">    ├── colors@1.0.3 </tspan>
<tspan x="10" y="522">    ├── cycle@1.0.3 </tspan>
<tspan x="10" y="538">    ├── eyes@0.1.8 </tspan>
<tspan x="10" y="554">    ├── isstream@0.1.2 </tspan>
<tspan x="10" y="570">    └── stack-trace@0.0.9</tspan>
</text>
</svg>
